<svg xmlns="http://www.w3.org/2000/svg" viewBox="0 0 105.65 105.649" fill="currentColor">
  <path id="linkedin-brands-solid" d="M98.1,32H7.523A7.579,7.579,0,0,0,0,39.617v90.415a7.579,7.579,0,0,0,7.523,7.617H98.1a7.6,7.6,0,0,0,7.546-7.617V39.617A7.6,7.6,0,0,0,98.1,32ZM31.931,122.557H16.272V72.137H31.954v50.419ZM24.1,65.251a9.079,9.079,0,1,1,9.079-9.079A9.083,9.083,0,0,1,24.1,65.251Zm66.526,57.306H74.969V98.031c0-5.848-.118-13.371-8.136-13.371-8.16,0-9.409,6.367-9.409,12.947v24.95H41.765V72.137H56.787v6.886H57c2.1-3.962,7.216-8.136,14.833-8.136,15.847,0,18.8,10.447,18.8,24.031Z" transform="translate(0 -32)"/>
</svg>
